<svg xmlns="http://www.w3.org/2000/svg" xmlns:xlink="http://www.w3.org/1999/xlink" width="94.656" height="94.655" viewBox="0 0 94.656 94.655">
  <defs>
    <linearGradient id="linear-gradient" x1="0.5" x2="0.5" y2="1" gradientUnits="objectBoundingBox">
      <stop offset="0" stop-color="#2e3acc"/>
      <stop offset="0.512" stop-color="#8d53ac"/>
      <stop offset="0.97" stop-color="#c537a2"/>
      <stop offset="1" stop-color="#c935a1"/>
    </linearGradient>
  </defs>
  <g id="Groupe_2" data-name="Groupe 2" transform="translate(-1022 -159)">
    <g id="Groupe_1" data-name="Groupe 1" transform="translate(-261 -107)">
      <path id="a8a99e5b4e977d0637e1d19c0c0c5867" d="M7.563.794A6.8,6.8,0,0,0,.8,7.554l-.009,58.6a2.256,2.256,0,1,0,4.511,0l0-58.6A2.2,2.2,0,0,1,7.563,5.3h63.1a2.2,2.2,0,0,1,2.253,2.253V48.117a2.254,2.254,0,1,0,4.507,0V7.554A6.8,6.8,0,0,0,70.66.794ZM21.083,18.822a2.253,2.253,0,1,0,2.253,2.253A2.253,2.253,0,0,0,21.083,18.822Zm8.789,0a2.257,2.257,0,0,0,.216,4.507H57.139a2.254,2.254,0,0,0,0-4.507H30.088q-.108-.005-.216,0ZM21.083,32.342A2.253,2.253,0,1,0,23.337,34.6,2.253,2.253,0,0,0,21.083,32.342Zm36.3,0a2.257,2.257,0,0,0-.248.009H30.088q-.108-.005-.216,0a2.254,2.254,0,0,0,.216,4.489H57.139A2.254,2.254,0,1,0,57.387,32.342Zm-27.3,13.516a2.254,2.254,0,0,0,0,4.507H57.139a2.254,2.254,0,1,0,0-4.507Zm-9,0a2.253,2.253,0,1,0,2.253,2.253A2.253,2.253,0,0,0,21.083,45.863Zm0,13.521a2.253,2.253,0,1,0,2.253,2.253A2.253,2.253,0,0,0,21.083,59.384Zm9,0a2.254,2.254,0,1,0,0,4.507H52.628a2.254,2.254,0,1,0,0-4.507Zm-9,13.521a2.253,2.253,0,1,0,2.253,2.253A2.253,2.253,0,0,0,21.083,72.905Zm8.789,0a2.258,2.258,0,0,0,.216,4.511H48.121a2.256,2.256,0,1,0,0-4.511H30.088Q29.98,72.9,29.872,72.905ZM3.024,75.118a2.253,2.253,0,0,0-2.231,2.3L.8,88.679a6.8,6.8,0,0,0,6.76,6.76h45.07a2.254,2.254,0,1,0,0-4.507H7.563a2.2,2.2,0,0,1-2.253-2.253l0-11.263a2.253,2.253,0,0,0-2.281-2.3ZM75.171,54.873A20.288,20.288,0,1,0,95.448,75.154,20.311,20.311,0,0,0,75.171,54.873Zm0,4.511A15.734,15.734,0,1,1,64.01,63.992a15.734,15.734,0,0,1,11.162-4.608Zm7.116,8.732a2.253,2.253,0,0,0-1.544.683l-7.968,7.966L69.6,73.574a2.258,2.258,0,1,0-3.2,3.191L71.18,81.54a2.253,2.253,0,0,0,3.189,0l9.571-9.55a2.253,2.253,0,0,0-1.652-3.874Z" transform="translate(1282.207 265.206)" fill-rule="evenodd" fill="url(#linear-gradient)"/>
    </g>
  </g>
</svg>
